<svg xmlns="http://www.w3.org/2000/svg" viewBox="0 0 960 540" role="img" aria-label="Capybara chill weapon charm cover">
  <defs>
    <linearGradient id="bg" x1="0" x2="1" y1="0" y2="1">
      <stop offset="0" stop-color="#16251d"/>
      <stop offset="1" stop-color="#30210f"/>
    </linearGradient>
  </defs>
  <rect width="960" height="540" fill="url(#bg)"/>
  <path d="M180 332 L780 250" stroke="#0f172a" stroke-width="58" stroke-linecap="round"/>
  <path d="M260 332 L710 270" stroke="#475569" stroke-width="18" stroke-linecap="round"/>
  <ellipse cx="510" cy="320" rx="178" ry="92" fill="#9a6a3f"/>
  <ellipse cx="626" cy="287" rx="78" ry="64" fill="#a97849"/>
  <circle cx="645" cy="278" r="9" fill="#0b0f14"/>
  <path d="M655 312 Q682 320 706 306" fill="none" stroke="#3f2a18" stroke-width="8" stroke-linecap="round"/>
  <circle cx="710" cy="340" r="34" fill="#f97316"/>
  <path d="M708 306 C730 286 755 286 780 300" fill="none" stroke="#22c55e" stroke-width="8" stroke-linecap="round"/>
  <g stroke="#38bdf8" stroke-width="8" fill="none" opacity=".7">
    <path d="M210 420 C300 388 390 450 500 414 C610 378 720 438 820 398"/>
    <path d="M160 465 C300 420 430 492 560 444 C680 400 780 450 900 416"/>
  </g>
  <text x="48" y="82" fill="#ecfccb" font-family="Arial, sans-serif" font-size="44" font-weight="800">CAPIBARA CHILL</text>
  <text x="51" y="124" fill="#fdba74" font-family="Arial, sans-serif" font-size="22" font-weight="700">relaxed animal meme gun charm</text>
</svg>
