<svg xmlns="http://www.w3.org/2000/svg" viewBox="0 0 960 540" role="img" aria-label="Mexico football duck cover">
  <defs>
    <linearGradient id="bg" x1="0" x2="1" y1="0" y2="1">
      <stop offset="0" stop-color="#0b2417"/>
      <stop offset="1" stop-color="#2c1d0a"/>
    </linearGradient>
  </defs>
  <rect width="960" height="540" fill="url(#bg)"/>
  <circle cx="680" cy="360" r="62" fill="#f8fafc"/>
  <path d="M650 360 L680 318 L712 360 L680 402 Z" fill="#111827"/>
  <ellipse cx="488" cy="332" rx="142" ry="86" fill="#facc15"/>
  <circle cx="595" cy="290" r="72" fill="#fde047"/>
  <path d="M650 290 L728 314 L650 338 Z" fill="#f97316"/>
  <circle cx="616" cy="270" r="10" fill="#0f172a"/>
  <path d="M438 278 L612 344 L594 390 L410 340 Z" fill="#16a34a"/>
  <path d="M470 290 L508 304 L486 360 L448 346 Z" fill="#f8fafc" opacity=".9"/>
  <path d="M514 306 L558 324 L538 378 L492 360 Z" fill="#ef4444" opacity=".9"/>
  <g stroke="#facc15" stroke-width="10" stroke-linecap="round" fill="none">
    <path d="M355 420 C388 438 424 438 458 420"/>
    <path d="M558 420 C592 438 628 438 662 420"/>
  </g>
  <text x="48" y="82" fill="#fefce8" font-family="Arial, sans-serif" font-size="44" font-weight="800">FOOTBALL DUCK</text>
  <text x="51" y="124" fill="#86efac" font-family="Arial, sans-serif" font-size="22" font-weight="700">Mexico World Cup animal charm</text>
</svg>
