<svg xmlns="http://www.w3.org/2000/svg" viewBox="0 0 960 540" role="img" aria-label="Tung Tung Sahur knock meme cover">
  <defs>
    <linearGradient id="bg" x1="0" x2="1" y1="0" y2="1">
      <stop offset="0" stop-color="#201006"/>
      <stop offset="1" stop-color="#34204a"/>
    </linearGradient>
  </defs>
  <rect width="960" height="540" fill="url(#bg)"/>
  <rect x="340" y="80" width="280" height="380" rx="28" fill="#6b3e1d"/>
  <rect x="374" y="116" width="212" height="308" rx="18" fill="#8a5529"/>
  <circle cx="552" cy="275" r="16" fill="#fbbf24"/>
  <g stroke="#f97316" stroke-width="16" stroke-linecap="round" fill="none">
    <path d="M245 150 C210 215 210 300 245 368"/>
    <path d="M715 150 C750 215 750 300 715 368"/>
    <path d="M288 190 C266 238 266 286 288 334"/>
    <path d="M672 190 C694 238 694 286 672 334"/>
  </g>
  <g fill="#fbbf24" opacity=".85">
    <circle cx="480" cy="72" r="10"/>
    <circle cx="228" cy="410" r="8"/>
    <circle cx="730" cy="105" r="7"/>
  </g>
  <text x="48" y="82" fill="#fff7ed" font-family="Arial, sans-serif" font-size="44" font-weight="800">TUNG TUNG TUNG</text>
  <text x="51" y="124" fill="#fbbf24" font-family="Arial, sans-serif" font-size="22" font-weight="700">midnight knock taunt emote</text>
</svg>
