<svg xmlns="http://www.w3.org/2000/svg" viewBox="0 0 960 540" role="img" aria-label="Angry baby hippo meme cover">
  <defs>
    <linearGradient id="bg" x1="0" x2="1" y1="0" y2="1">
      <stop offset="0" stop-color="#102334"/>
      <stop offset="1" stop-color="#2b1839"/>
    </linearGradient>
    <radialGradient id="glow" cx="55%" cy="38%" r="55%">
      <stop offset="0" stop-color="#22d3ee" stop-opacity=".48"/>
      <stop offset="1" stop-color="#22d3ee" stop-opacity="0"/>
    </radialGradient>
  </defs>
  <rect width="960" height="540" fill="url(#bg)"/>
  <rect width="960" height="540" fill="url(#glow)"/>
  <path d="M0 420 C180 350 310 460 480 392 C640 330 760 400 960 330 L960 540 L0 540 Z" fill="#08111c" opacity=".64"/>
  <ellipse cx="520" cy="310" rx="190" ry="128" fill="#5d6878"/>
  <ellipse cx="410" cy="270" rx="72" ry="58" fill="#667384"/>
  <ellipse cx="630" cy="270" rx="72" ry="58" fill="#667384"/>
  <ellipse cx="520" cy="352" rx="118" ry="68" fill="#9b6a78"/>
  <circle cx="455" cy="282" r="16" fill="#061018"/>
  <circle cx="585" cy="282" r="16" fill="#061018"/>
  <path d="M430 246 L482 268" stroke="#0b1018" stroke-width="16" stroke-linecap="round"/>
  <path d="M610 246 L558 268" stroke="#0b1018" stroke-width="16" stroke-linecap="round"/>
  <path d="M455 365 Q520 414 586 365" fill="none" stroke="#f7c3cf" stroke-width="18" stroke-linecap="round"/>
  <g fill="#7dd3fc" opacity=".9">
    <circle cx="250" cy="198" r="12"/>
    <circle cx="282" cy="245" r="8"/>
    <circle cx="735" cy="230" r="10"/>
    <circle cx="760" cy="290" r="6"/>
  </g>
  <text x="48" y="82" fill="#e5f8ff" font-family="Arial, sans-serif" font-size="44" font-weight="800">MOO DENG ENERGY</text>
  <text x="51" y="124" fill="#7dd3fc" font-family="Arial, sans-serif" font-size="22" font-weight="700">angry baby hippo charm / emote</text>
</svg>
